<?xml version="1.0" encoding="UTF-8"?>
<svg width="295px" height="31px" viewBox="0 0 295 31" version="1.1" xmlns="http://www.w3.org/2000/svg" xmlns:xlink="http://www.w3.org/1999/xlink">
    <!-- Generator: Sketch 52.6 (67491) - http://www.bohemiancoding.com/sketch -->
    <title>shiftgig_logo_ol 3 + ondemand 2</title>
    <desc>Created with Sketch.</desc>
    <g id="Symbols" stroke="none" stroke-width="1" fill="none" fill-rule="evenodd">
        <g id="Footer" transform="translate(-993.000000, -51.000000)" fill="#FFFFFF">
            <g id="shiftgig_logo_ol-3-+-ondemand-2" transform="translate(993.000000, 44.000000)">
                <g id="logo-script" transform="translate(0.000000, 7.000000)" fill-rule="nonzero">
                    <path d="M39.8780986,13.9372353 C38.0020014,13.3745752 36.3561609,12.8117124 36.3561609,11.4213725 C36.3561609,10.361902 37.4752116,9.89832026 38.7918841,9.89832026 C40.2731406,9.89832026 41.2606449,10.4281569 41.2606449,11.2888627 L41.2606449,12.2490523 L44.8482551,12.2490523 L44.8482551,10.097085 C44.8482551,7.54799346 41.2276072,6.58800654 38.7918841,6.58800654 C35.7308623,6.58800654 32.175887,7.84603922 32.175887,11.4213725 C32.175887,14.6326078 35.0066522,15.7911569 37.4752116,16.6518627 C39.7135145,17.4797451 41.2934812,17.8436405 41.2934812,19.2674118 C41.2934812,20.392732 40.1085565,20.9888235 38.4298797,20.9888235 C36.685329,20.9888235 35.1381986,20.392732 35.1381986,19.234183 L35.1381986,18.2409673 L31.5834246,18.2409673 L31.5834246,20.1941699 C31.5834246,22.9418235 35.3358203,24.2663137 38.396842,24.2663137 C42.2479478,24.2663137 45.4737551,22.5446993 45.4737551,19.1346993 C45.4737551,15.8243856 42.4453681,14.764915 39.8780986,13.9372353 Z M67.5604522,0.364098039 L71.7735623,0.364098039 L71.7735623,4.10496732 L67.5604522,4.10496732 L67.5604522,0.364098039 Z M89.6791797,17.2479542 L89.6791797,10.1303137 L93.4974493,10.1303137 L93.4974493,6.98513072 L89.6791797,6.98513072 L89.6791797,2.38355556 L85.6306536,2.38355556 L85.6306536,6.98513072 L80.0021609,6.98513072 L80.0021609,6.12442484 C80.0021609,3.67461438 81.878258,3.47605229 82.8329261,3.47605229 C83.6886826,3.47605229 84.1165609,3.57533333 84.1165609,3.57533333 L84.1165609,0.198562092 C84.1165609,0.198562092 83.3923507,0.066254902 82.4050478,0.066254902 C80.1667449,0.066254902 75.821887,0.761424837 75.821887,6.22370588 L75.821887,6.98513072 L73.2217812,6.98513072 L73.2217812,10.1303137 L75.821887,10.1303137 L75.821887,20.7238039 L71.7733609,20.7238039 L71.7733609,6.98513072 L64.9931826,6.98513072 L64.9931826,10.1303137 L67.5932884,10.1303137 L67.5932884,20.7238039 L63.7748174,20.7238039 L63.7748174,13.0102745 C63.7748174,8.54120915 61.6354261,6.58800654 57.9160681,6.58800654 C55.019429,6.58800654 52.9459116,8.3756732 52.1229913,9.99780392 L52.0571174,9.99780392 C52.0571174,9.99780392 52.1558275,9.40191503 52.1558275,8.57423529 L52.1558275,0.364098039 L45.3754478,0.364098039 L45.3754478,3.50907843 L47.9755536,3.50907843 L47.9755536,20.7238039 L45.5400319,20.7238039 L45.5400319,23.8689869 L54.5587145,23.8689869 L54.5587145,20.7238039 L52.1558275,20.7238039 L52.1558275,16.1222288 C52.1558275,13.0102745 53.9990884,10.4281569 56.9614,10.4281569 C59.0679551,10.4281569 59.5947449,11.8184967 59.5947449,13.8709804 L59.5947449,23.8689869 L82.8329261,23.8689869 L82.8329261,20.7238039 L80.0021609,20.7238039 L80.0021609,10.1303137 L85.4991072,10.1303137 L85.4991072,17.6783072 C85.4991072,23.3391503 90.1400957,24.0345229 92.5099449,24.0345229 C93.2669913,24.0345229 93.7935797,23.9352418 93.7935797,23.9352418 L93.7935797,20.4922157 C93.7935797,20.4922157 93.4974493,20.5252418 93.0365333,20.5252418 C91.8516087,20.5252418 89.6791797,20.1281176 89.6791797,17.2479542 Z M114.234436,0.364098039 L118.447546,0.364098039 L118.447546,4.10496732 L114.234436,4.10496732 L114.234436,0.364098039 Z M118.447546,6.98513072 L108.441158,6.98513072 C107.124486,6.98513072 106.532023,7.68030065 106.532023,8.57423529 C106.532023,8.90530719 106.597696,9.13709804 106.597696,9.13709804 L106.532023,9.13709804 C105.610393,7.34922876 103.339254,6.58800654 101.331409,6.58800654 C96.4927986,6.58800654 93.8926928,10.361902 93.8926928,14.9967059 C93.8926928,19.6315098 96.5915087,23.537915 101.430119,23.537915 C103.66822,23.537915 105.116641,22.6772092 106.104145,21.1873856 L106.169817,21.1873856 C106.169817,21.1873856 106.104145,21.6837908 106.104145,22.0811176 L106.104145,23.1405882 C106.104145,26.2523399 103.931716,27.3780654 101.364245,27.3780654 C98.7969754,27.3780654 96.7232565,26.2523399 96.7232565,26.2523399 L95.4396217,29.3644967 C97.0854623,30.2252026 99.3235638,30.8210915 101.430119,30.8210915 C105.807813,30.8210915 110.284217,28.636098 110.284217,22.8425425 L110.284217,10.7922549 C110.284217,10.361902 110.580549,10.1303137 111.008428,10.1303137 L114.267272,10.1303137 L114.267272,20.7238039 L111.831549,20.7238039 L111.831549,23.8689869 L120.850232,23.8689869 L120.850232,20.7238039 L118.447546,20.7238039 L118.447546,6.98513072 Z M102.318913,19.9954052 C99.6198957,19.9954052 98.1058029,17.8106144 98.1058029,14.8641961 C98.1058029,12.0170588 99.5209841,10.1633399 102.055619,10.1633399 C104.29372,10.1633399 106.202654,11.1895817 106.202654,15.0299346 C106.202654,18.8368562 104.29372,19.9954052 102.318913,19.9954052 Z M135.497609,6.98513072 C134.180936,6.98513072 133.588675,7.68030065 133.588675,8.57423529 C133.588675,8.90530719 133.654348,9.13709804 133.654348,9.13709804 L133.588675,9.13709804 C132.667045,7.34922876 130.395704,6.58800654 128.387859,6.58800654 C123.549451,6.58800654 120.949345,10.361902 120.949345,14.9967059 C120.949345,19.6315098 123.648161,23.537915 128.486771,23.537915 C130.724872,23.537915 132.173293,22.6772092 133.160596,21.1873856 L133.22647,21.1873856 C133.22647,21.1873856 133.160596,21.6837908 133.160596,22.0811176 L133.160596,23.1405882 C133.160596,26.2523399 130.988368,27.3780654 128.420897,27.3780654 C125.853426,27.3780654 123.779707,26.2523399 123.779707,26.2523399 L122.496072,29.3644967 C124.141913,30.2252026 126.380216,30.8210915 128.486771,30.8210915 C132.864465,30.8210915 137.34087,28.636098 137.34087,22.8425425 L137.34087,10.7922549 C137.34087,10.361902 137.637201,10.1303137 138.064878,10.1303137 L139.677681,10.1303137 L139.677681,6.98513072 L135.497609,6.98513072 Z M129.375565,19.9954052 C126.676346,19.9954052 125.162455,17.8106144 125.162455,14.8641961 C125.162455,12.0170588 126.577636,10.1633399 129.11207,10.1633399 C131.350171,10.1633399 133.259306,11.1895817 133.259306,15.0299346 C133.259306,18.8368562 131.350171,19.9954052 129.375565,19.9954052 Z" id="Fill-1"></path>
                    <path d="M0.94983913,24.0098039 L24.4593725,24.0098039 L24.4593725,0.363490196 L0.94983913,0.363490196 L0.94983913,24.0098039 Z M19.6135101,17.1095686 L19.6135101,22.219098 L2.76892609,19.8659346 L2.76892609,17.1095686 L14.5323551,17.1095686 L16.8738,9.41954248 L19.6135101,9.41954248 L19.6135101,17.1095686 Z M22.5867,7.26757516 L10.8242783,7.26757516 L8.48182609,15.1211111 L5.74211594,15.1211111 L5.74211594,2.15358824 L22.5867,4.50918301 L22.5867,7.26757516 Z" id="Fill-7"></path>
                </g>
                <text id="ondemand-2" font-family="Helvetica" font-size="32" font-weight="normal" letter-spacing="-0.666667">
                    <tspan x="150" y="31">on</tspan>
                    <tspan x="184.260416" y="31">demand</tspan>
                </text>
            </g>
        </g>
    </g>
</svg>